<svg id="visual" viewBox="0 0 1440 100" width="1440" height="100" xmlns="http://www.w3.org/2000/svg" xmlns:xlink="http://www.w3.org/1999/xlink" version="1.1"><rect x="0" y="0" width="1440" height="100" fill="#141414"></rect><g fill="none" stroke="#A7233A" stroke-width="2"><circle r="38" cx="142" cy="97"></circle><circle r="21" cx="564" cy="14"></circle><circle r="36" cx="1428" cy="50"></circle><circle r="36" cx="611" cy="87"></circle><circle r="34" cx="1114" cy="98"></circle><circle r="32" cx="463" cy="95"></circle><circle r="35" cx="1300" cy="51"></circle><circle r="33" cx="713" cy="44"></circle><circle r="29" cx="841" cy="85"></circle><circle r="26" cx="293" cy="86"></circle><circle r="22" cx="326" cy="11"></circle><circle r="34" cx="13" cy="74"></circle><circle r="35" cx="928" cy="45"></circle><circle r="22" cx="197" cy="18"></circle><circle r="29" cx="1012" cy="56"></circle><circle r="21" cx="96" cy="20"></circle><circle r="34" cx="1193" cy="76"></circle><circle r="32" cx="415" cy="27"></circle><circle r="23" cx="807" cy="9"></circle><circle r="21" cx="1106" cy="14"></circle><circle r="32" cx="1233" cy="6"></circle></g></svg>