<svg id="visual" viewBox="0 0 1170 100" width="1170" height="100" xmlns="http://www.w3.org/2000/svg" xmlns:xlink="http://www.w3.org/1999/xlink" version="1.1"><rect x="0" y="0" width="1170" height="100" fill="#FFD669"></rect><defs><linearGradient id="grad1_0" x1="91.5%" y1="100%" x2="100%" y2="0%"><stop offset="-184%" stop-color="#ff0066" stop-opacity="1"></stop><stop offset="283.9999999999999%" stop-color="#ff0066" stop-opacity="1"></stop></linearGradient></defs><defs><linearGradient id="grad1_1" x1="91.5%" y1="100%" x2="100%" y2="0%"><stop offset="-184%" stop-color="#ff0066" stop-opacity="1"></stop><stop offset="283.9999999999999%" stop-color="#ff8849" stop-opacity="1"></stop></linearGradient></defs><defs><linearGradient id="grad1_2" x1="91.5%" y1="100%" x2="100%" y2="0%"><stop offset="-184%" stop-color="#ffd669" stop-opacity="1"></stop><stop offset="283.9999999999999%" stop-color="#ff8849" stop-opacity="1"></stop></linearGradient></defs><defs><linearGradient id="grad2_0" x1="0%" y1="100%" x2="8.5%" y2="0%"><stop offset="-184%" stop-color="#ff0066" stop-opacity="1"></stop><stop offset="283.9999999999999%" stop-color="#ff0066" stop-opacity="1"></stop></linearGradient></defs><defs><linearGradient id="grad2_1" x1="0%" y1="100%" x2="8.5%" y2="0%"><stop offset="-184%" stop-color="#ff8849" stop-opacity="1"></stop><stop offset="283.9999999999999%" stop-color="#ff0066" stop-opacity="1"></stop></linearGradient></defs><defs><linearGradient id="grad2_2" x1="0%" y1="100%" x2="8.5%" y2="0%"><stop offset="-184%" stop-color="#ff8849" stop-opacity="1"></stop><stop offset="283.9999999999999%" stop-color="#ffd669" stop-opacity="1"></stop></linearGradient></defs><g transform="translate(1170, 100)"><path d="M-100 0C-97.4 -17.5 -94.7 -34.9 -86.6 -50C-78.5 -65.1 -64.8 -77.8 -49.5 -85.7C-34.2 -93.7 -17.1 -96.8 0 -100L0 0Z" fill="#ffb150"></path><path d="M-66.7 0C-64.9 -11.6 -63.2 -23.3 -57.7 -33.3C-52.3 -43.4 -43.2 -51.9 -33 -57.2C-22.8 -62.4 -11.4 -64.6 0 -66.7L0 0Z" fill="#ff5753"></path><path d="M-33.3 0C-32.5 -5.8 -31.6 -11.6 -28.9 -16.7C-26.2 -21.7 -21.6 -25.9 -16.5 -28.6C-11.4 -31.2 -5.7 -32.3 0 -33.3L0 0Z" fill="#ff0066"></path></g><g transform="translate(0, 0)"><path d="M100 0C97.4 17.6 94.9 35.1 86.6 50C78.3 64.9 64.4 77 49 84.9C33.6 92.8 16.8 96.4 0 100L0 0Z" fill="#ffb150"></path><path d="M66.7 0C65 11.7 63.2 23.4 57.7 33.3C52.2 43.2 42.9 51.3 32.7 56.6C22.4 61.8 11.2 64.3 0 66.7L0 0Z" fill="#ff5753"></path><path d="M33.3 0C32.5 5.9 31.6 11.7 28.9 16.7C26.1 21.6 21.5 25.7 16.3 28.3C11.2 30.9 5.6 32.1 0 33.3L0 0Z" fill="#ff0066"></path></g></svg>