<svg id="visual" viewBox="0 0 1440 100" width="1440" height="100" xmlns="http://www.w3.org/2000/svg" xmlns:xlink="http://www.w3.org/1999/xlink" version="1.1"><path d="M0 30L24 28.8C48 27.7 96 25.3 144 29.7C192 34 240 45 288 50.3C336 55.7 384 55.3 432 56.8C480 58.3 528 61.7 576 61.5C624 61.3 672 57.7 720 51.5C768 45.3 816 36.7 864 31.2C912 25.7 960 23.3 1008 27.8C1056 32.3 1104 43.7 1152 46.2C1200 48.7 1248 42.3 1296 37.7C1344 33 1392 30 1416 28.5L1440 27L1440 0L1416 0C1392 0 1344 0 1296 0C1248 0 1200 0 1152 0C1104 0 1056 0 1008 0C960 0 912 0 864 0C816 0 768 0 720 0C672 0 624 0 576 0C528 0 480 0 432 0C384 0 336 0 288 0C240 0 192 0 144 0C96 0 48 0 24 0L0 0Z" fill="#2872bd"></path><path d="M0 44L24 45.7C48 47.3 96 50.7 144 57.7C192 64.7 240 75.3 288 80.8C336 86.3 384 86.7 432 84.8C480 83 528 79 576 75.7C624 72.3 672 69.7 720 66.8C768 64 816 61 864 59.8C912 58.7 960 59.3 1008 62C1056 64.7 1104 69.3 1152 67.8C1200 66.3 1248 58.7 1296 53.2C1344 47.7 1392 44.3 1416 42.7L1440 41L1440 25L1416 26.5C1392 28 1344 31 1296 35.7C1248 40.3 1200 46.7 1152 44.2C1104 41.7 1056 30.3 1008 25.8C960 21.3 912 23.7 864 29.2C816 34.7 768 43.3 720 49.5C672 55.7 624 59.3 576 59.5C528 59.7 480 56.3 432 54.8C384 53.3 336 53.7 288 48.3C240 43 192 32 144 27.7C96 23.3 48 25.7 24 26.8L0 28Z" fill="#3a9cfc"></path><path d="M0 101L24 101C48 101 96 101 144 101C192 101 240 101 288 101C336 101 384 101 432 101C480 101 528 101 576 101C624 101 672 101 720 101C768 101 816 101 864 101C912 101 960 101 1008 101C1056 101 1104 101 1152 101C1200 101 1248 101 1296 101C1344 101 1392 101 1416 101L1440 101L1440 39L1416 40.7C1392 42.3 1344 45.7 1296 51.2C1248 56.7 1200 64.3 1152 65.8C1104 67.3 1056 62.7 1008 60C960 57.3 912 56.7 864 57.8C816 59 768 62 720 64.8C672 67.7 624 70.3 576 73.7C528 77 480 81 432 82.8C384 84.7 336 84.3 288 78.8C240 73.3 192 62.7 144 55.7C96 48.7 48 45.3 24 43.7L0 42Z" fill="#7ebcfe"></path></svg>