<svg id="visual" viewBox="0 0 1440 100" width="1440" height="100" xmlns="http://www.w3.org/2000/svg" xmlns:xlink="http://www.w3.org/1999/xlink" version="1.1"><rect x="0" y="0" width="1440" height="100" fill="#FE6A77"></rect><defs><linearGradient id="grad1_0" x1="93.1%" y1="100%" x2="100%" y2="0%"><stop offset="-238%" stop-color="#ff0066" stop-opacity="1"></stop><stop offset="338%" stop-color="#ff0066" stop-opacity="1"></stop></linearGradient></defs><defs><linearGradient id="grad1_1" x1="93.1%" y1="100%" x2="100%" y2="0%"><stop offset="-238%" stop-color="#ff0066" stop-opacity="1"></stop><stop offset="338%" stop-color="#ff496d" stop-opacity="1"></stop></linearGradient></defs><defs><linearGradient id="grad1_2" x1="93.1%" y1="100%" x2="100%" y2="0%"><stop offset="-238%" stop-color="#fe6a77" stop-opacity="1"></stop><stop offset="338%" stop-color="#ff496d" stop-opacity="1"></stop></linearGradient></defs><defs><linearGradient id="grad2_0" x1="0%" y1="100%" x2="6.9%" y2="0%"><stop offset="-238%" stop-color="#ff0066" stop-opacity="1"></stop><stop offset="338%" stop-color="#ff0066" stop-opacity="1"></stop></linearGradient></defs><defs><linearGradient id="grad2_1" x1="0%" y1="100%" x2="6.9%" y2="0%"><stop offset="-238%" stop-color="#ff496d" stop-opacity="1"></stop><stop offset="338%" stop-color="#ff0066" stop-opacity="1"></stop></linearGradient></defs><defs><linearGradient id="grad2_2" x1="0%" y1="100%" x2="6.9%" y2="0%"><stop offset="-238%" stop-color="#ff496d" stop-opacity="1"></stop><stop offset="338%" stop-color="#fe6a77" stop-opacity="1"></stop></linearGradient></defs><g transform="translate(1440, 100)"><path d="M-100 0C-95.3 -6.5 -90.6 -13.1 -89.7 -20.5C-88.8 -27.9 -91.6 -36.2 -90.1 -43.4C-88.6 -50.6 -82.8 -56.8 -76.6 -61.1C-70.4 -65.4 -63.8 -67.7 -58.6 -73.5C-53.4 -79.2 -49.7 -88.4 -43 -89.2C-36.2 -90 -26.6 -82.5 -18.9 -82.9C-11.3 -83.3 -5.6 -91.6 0 -100L0 0Z" fill="#ff5b72"></path><path d="M-66.7 0C-63.5 -4.4 -60.4 -8.7 -59.8 -13.6C-59.2 -18.6 -61.1 -24.1 -60.1 -28.9C-59.1 -33.8 -55.2 -37.9 -51.1 -40.7C-46.9 -43.6 -42.5 -45.2 -39.1 -49C-35.6 -52.8 -33.1 -58.9 -28.6 -59.5C-24.2 -60 -17.7 -55 -12.6 -55.2C-7.5 -55.5 -3.8 -61.1 0 -66.7L0 0Z" fill="#ff3269"></path><path d="M-33.3 0C-31.8 -2.2 -30.2 -4.4 -29.9 -6.8C-29.6 -9.3 -30.5 -12.1 -30 -14.5C-29.5 -16.9 -27.6 -18.9 -25.5 -20.4C-23.5 -21.8 -21.3 -22.6 -19.5 -24.5C-17.8 -26.4 -16.6 -29.5 -14.3 -29.7C-12.1 -30 -8.9 -27.5 -6.3 -27.6C-3.8 -27.8 -1.9 -30.5 0 -33.3L0 0Z" fill="#ff0066"></path></g><g transform="translate(0, 0)"><path d="M100 0C93.8 6.3 87.7 12.6 85.8 19.6C83.9 26.5 86.2 34.1 85.6 41.2C85 48.3 81.4 55 77.4 61.7C73.4 68.5 69.1 75.4 62.3 78.2C55.6 81 46.3 79.8 39 81.1C31.8 82.4 26.6 86.1 20.5 89.7C14.3 93.3 7.2 96.6 0 100L0 0Z" fill="#ff5b72"></path><path d="M66.7 0C62.6 4.2 58.5 8.4 57.2 13.1C55.9 17.7 57.5 22.7 57.1 27.5C56.6 32.2 54.2 36.6 51.6 41.2C49 45.7 46.1 50.2 41.6 52.1C37 54 30.9 53.2 26 54.1C21.2 54.9 17.8 57.4 13.6 59.8C9.5 62.2 4.8 64.4 0 66.7L0 0Z" fill="#ff3269"></path><path d="M33.3 0C31.3 2.1 29.2 4.2 28.6 6.5C28 8.8 28.7 11.4 28.5 13.7C28.3 16.1 27.1 18.3 25.8 20.6C24.5 22.8 23 25.1 20.8 26.1C18.5 27 15.4 26.6 13 27C10.6 27.5 8.9 28.7 6.8 29.9C4.8 31.1 2.4 32.2 0 33.3L0 0Z" fill="#ff0066"></path></g></svg>