<svg id="visual" viewBox="0 0 1440 100" width="1440" height="100" xmlns="http://www.w3.org/2000/svg" xmlns:xlink="http://www.w3.org/1999/xlink" version="1.1"><rect x="0" y="0" width="1440" height="100" fill="#02D1B9"></rect><g fill="#00a592"><circle r="21" cx="1371" cy="72"></circle><circle r="8" cx="1309" cy="58"></circle><circle r="11" cx="832" cy="25"></circle><circle r="12" cx="1090" cy="25"></circle><circle r="7" cx="601" cy="76"></circle><circle r="19" cx="249" cy="46"></circle><circle r="16" cx="1179" cy="65"></circle><circle r="8" cx="459" cy="31"></circle><circle r="19" cx="45" cy="69"></circle><circle r="10" cx="602" cy="27"></circle><circle r="8" cx="133" cy="57"></circle><circle r="13" cx="946" cy="60"></circle><circle r="8" cx="709" cy="78"></circle><circle r="13" cx="1136" cy="52"></circle><circle r="18" cx="380" cy="69"></circle><circle r="11" cx="311" cy="52"></circle><circle r="17" cx="456" cy="76"></circle><circle r="12" cx="507" cy="76"></circle><circle r="8" cx="1403" cy="43"></circle><circle r="14" cx="1087" cy="70"></circle><circle r="7" cx="1181" cy="22"></circle><circle r="7" cx="1032" cy="77"></circle><circle r="15" cx="210" cy="30"></circle><circle r="14" cx="637" cy="54"></circle><circle r="19" cx="898" cy="33"></circle><circle r="9" cx="985" cy="33"></circle><circle r="19" cx="702" cy="25"></circle><circle r="9" cx="1222" cy="63"></circle><circle r="10" cx="816" cy="78"></circle><circle r="9" cx="35" cy="21"></circle><circle r="17" cx="775" cy="63"></circle><circle r="14" cx="529" cy="23"></circle><circle r="16" cx="392" cy="29"></circle><circle r="15" cx="873" cy="66"></circle><circle r="11" cx="1349" cy="35"></circle><circle r="12" cx="86" cy="38"></circle><circle r="9" cx="1267" cy="60"></circle><circle r="7" cx="162" cy="26"></circle><circle r="19" cx="561" cy="52"></circle><circle r="12" cx="742" cy="36"></circle><circle r="19" cx="1041" cy="21"></circle><circle r="8" cx="345" cy="26"></circle><circle r="19" cx="1240" cy="24"></circle><circle r="14" cx="195" cy="75"></circle></g></svg>