<svg id="visual" viewBox="0 0 1440 100" width="1440" height="100" xmlns="http://www.w3.org/2000/svg" xmlns:xlink="http://www.w3.org/1999/xlink" version="1.1"><rect width="1440" height="100" fill="#895BF7"></rect><g><g transform="translate(644 43)"><path d="M0 -22.2L19.2 -11.1L19.2 11.1L0 22.2L-19.2 11.1L-19.2 -11.1Z" fill="none" stroke="#6600FF" stroke-width="2"></path></g><g transform="translate(631 86)"><path d="M0 -12L10.4 -6L10.4 6L0 12L-10.4 6L-10.4 -6Z" fill="none" stroke="#6600FF" stroke-width="2"></path></g><g transform="translate(9 85)"><path d="M0 -9L7.8 -4.5L7.8 4.5L0 9L-7.8 4.5L-7.8 -4.5Z" fill="none" stroke="#6600FF" stroke-width="2"></path></g><g transform="translate(942 59)"><path d="M0 -17L14.7 -8.5L14.7 8.5L0 17L-14.7 8.5L-14.7 -8.5Z" stroke="#6600FF" fill="none" stroke-width="2"></path></g><g transform="translate(547 14)"><path d="M0 -14L12.1 -7L12.1 7L0 14L-12.1 7L-12.1 -7Z" stroke="#6600FF" fill="none" stroke-width="2"></path></g><g transform="translate(762 47)"><path d="M0 -9L7.8 -4.5L7.8 4.5L0 9L-7.8 4.5L-7.8 -4.5Z" stroke="#6600FF" fill="none" stroke-width="2"></path></g><g transform="translate(1273 27)"><path d="M0 -8L6.9 -4L6.9 4L0 8L-6.9 4L-6.9 -4Z" stroke="#6600FF" fill="none" stroke-width="2"></path></g><g transform="translate(32 31)"><path d="M0 -13L11.3 -6.5L11.3 6.5L0 13L-11.3 6.5L-11.3 -6.5Z" stroke="#6600FF" fill="none" stroke-width="2"></path></g><g transform="translate(1220 43)"><path d="M0 -8L6.9 -4L6.9 4L0 8L-6.9 4L-6.9 -4Z" stroke="#6600FF" fill="none" stroke-width="2"></path></g><g transform="translate(87 36)"><path d="M0 -19L16.5 -9.5L16.5 9.5L0 19L-16.5 9.5L-16.5 -9.5Z" stroke="#6600FF" fill="none" stroke-width="2"></path></g><g transform="translate(478 78)"><path d="M0 -15L13 -7.5L13 7.5L0 15L-13 7.5L-13 -7.5Z" stroke="#6600FF" fill="none" stroke-width="2"></path></g><g transform="translate(236 93)"><path d="M0 -13L11.3 -6.5L11.3 6.5L0 13L-11.3 6.5L-11.3 -6.5Z" stroke="#6600FF" fill="none" stroke-width="2"></path></g><g transform="translate(166 50)"><path d="M0 -17L14.7 -8.5L14.7 8.5L0 17L-14.7 8.5L-14.7 -8.5Z" stroke="#6600FF" fill="none" stroke-width="2"></path></g><g transform="translate(1016 27)"><path d="M0 -18L15.6 -9L15.6 9L0 18L-15.6 9L-15.6 -9Z" stroke="#6600FF" fill="none" stroke-width="2"></path></g><g transform="translate(722 81)"><path d="M0 -18L15.6 -9L15.6 9L0 18L-15.6 9L-15.6 -9Z" stroke="#6600FF" fill="none" stroke-width="2"></path></g><g transform="translate(1354 86)"><path d="M0 -14L12.1 -7L12.1 7L0 14L-12.1 7L-12.1 -7Z" stroke="#6600FF" fill="none" stroke-width="2"></path></g><g transform="translate(419 23)"><path d="M0 -21L18.2 -10.5L18.2 10.5L0 21L-18.2 10.5L-18.2 -10.5Z" stroke="#6600FF" fill="none" stroke-width="2"></path></g><g transform="translate(1147 38)"><path d="M0 -16L13.9 -8L13.9 8L0 16L-13.9 8L-13.9 -8Z" stroke="#6600FF" fill="none" stroke-width="2"></path></g><g transform="translate(1434 61)"><path d="M0 -12L10.4 -6L10.4 6L0 12L-10.4 6L-10.4 -6Z" stroke="#6600FF" fill="none" stroke-width="2"></path></g><g transform="translate(1341 36)"><path d="M0 -11L9.5 -5.5L9.5 5.5L0 11L-9.5 5.5L-9.5 -5.5Z" stroke="#6600FF" fill="none" stroke-width="2"></path></g><g transform="translate(375 1)"><path d="M0 -15L13 -7.5L13 7.5L0 15L-13 7.5L-13 -7.5Z" stroke="#6600FF" fill="none" stroke-width="2"></path></g><g transform="translate(289 40)"><path d="M0 -15L13 -7.5L13 7.5L0 15L-13 7.5L-13 -7.5Z" stroke="#6600FF" fill="none" stroke-width="2"></path></g><g transform="translate(1137 97)"><path d="M0 -13L11.3 -6.5L11.3 6.5L0 13L-11.3 6.5L-11.3 -6.5Z" stroke="#6600FF" fill="none" stroke-width="2"></path></g><g transform="translate(679 92)"><path d="M0 -15L13 -7.5L13 7.5L0 15L-13 7.5L-13 -7.5Z" stroke="#6600FF" fill="none" stroke-width="2"></path></g><g transform="translate(115 80)"><path d="M0 -8L6.9 -4L6.9 4L0 8L-6.9 4L-6.9 -4Z" stroke="#6600FF" fill="none" stroke-width="2"></path></g><g transform="translate(1077 2)"><path d="M0 -15L13 -7.5L13 7.5L0 15L-13 7.5L-13 -7.5Z" stroke="#6600FF" fill="none" stroke-width="2"></path></g><g transform="translate(1041 66)"><path d="M0 -11L9.5 -5.5L9.5 5.5L0 11L-9.5 5.5L-9.5 -5.5Z" stroke="#6600FF" fill="none" stroke-width="2"></path></g><g transform="translate(373 97)"><path d="M0 -21L18.2 -10.5L18.2 10.5L0 21L-18.2 10.5L-18.2 -10.5Z" stroke="#6600FF" fill="none" stroke-width="2"></path></g><g transform="translate(553 98)"><path d="M0 -12L10.4 -6L10.4 6L0 12L-10.4 6L-10.4 -6Z" stroke="#6600FF" fill="none" stroke-width="2"></path></g><g transform="translate(691 35)"><path d="M0 -9L7.8 -4.5L7.8 4.5L0 9L-7.8 4.5L-7.8 -4.5Z" stroke="#6600FF" fill="none" stroke-width="2"></path></g><g transform="translate(612 3)"><path d="M0 -12L10.4 -6L10.4 6L0 12L-10.4 6L-10.4 -6Z" stroke="#6600FF" fill="none" stroke-width="2"></path></g><g transform="translate(904 33)"><path d="M0 -16L13.9 -8L13.9 8L0 16L-13.9 8L-13.9 -8Z" stroke="#6600FF" fill="none" stroke-width="2"></path></g><g transform="translate(833 30)"><path d="M0 -9L7.8 -4.5L7.8 4.5L0 9L-7.8 4.5L-7.8 -4.5Z" stroke="#6600FF" fill="none" stroke-width="2"></path></g><g transform="translate(783 90)"><path d="M0 -19L16.5 -9.5L16.5 9.5L0 19L-16.5 9.5L-16.5 -9.5Z" stroke="#6600FF" fill="none" stroke-width="2"></path></g><g transform="translate(1286 93)"><path d="M0 -11L9.5 -5.5L9.5 5.5L0 11L-9.5 5.5L-9.5 -5.5Z" stroke="#6600FF" fill="none" stroke-width="2"></path></g><g transform="translate(520 59)"><path d="M0 -19L16.5 -9.5L16.5 9.5L0 19L-16.5 9.5L-16.5 -9.5Z" stroke="#6600FF" fill="none" stroke-width="2"></path></g><g transform="translate(1395 16)"><path d="M0 -21L18.2 -10.5L18.2 10.5L0 21L-18.2 10.5L-18.2 -10.5Z" stroke="#6600FF" fill="none" stroke-width="2"></path></g><g transform="translate(484 33)"><path d="M0 -17L14.7 -8.5L14.7 8.5L0 17L-14.7 8.5L-14.7 -8.5Z" stroke="#6600FF" fill="none" stroke-width="2"></path></g><g transform="translate(233 41)"><path d="M0 -19L16.5 -9.5L16.5 9.5L0 19L-16.5 9.5L-16.5 -9.5Z" stroke="#6600FF" fill="none" stroke-width="2"></path></g><g transform="translate(1232 98)"><path d="M0 -16L13.9 -8L13.9 8L0 16L-13.9 8L-13.9 -8Z" stroke="#6600FF" fill="none" stroke-width="2"></path></g><g transform="translate(570 55)"><path d="M0 -21L18.2 -10.5L18.2 10.5L0 21L-18.2 10.5L-18.2 -10.5Z" stroke="#6600FF" fill="none" stroke-width="2"></path></g><g transform="translate(121 2)"><path d="M0 -21L18.2 -10.5L18.2 10.5L0 21L-18.2 10.5L-18.2 -10.5Z" stroke="#6600FF" fill="none" stroke-width="2"></path></g><g transform="translate(990 93)"><path d="M0 -19L16.5 -9.5L16.5 9.5L0 19L-16.5 9.5L-16.5 -9.5Z" stroke="#6600FF" fill="none" stroke-width="2"></path></g><g transform="translate(886 95)"><path d="M0 -14L12.1 -7L12.1 7L0 14L-12.1 7L-12.1 -7Z" stroke="#6600FF" fill="none" stroke-width="2"></path></g><g transform="translate(362 47)"><path d="M0 -12L10.4 -6L10.4 6L0 12L-10.4 6L-10.4 -6Z" stroke="#6600FF" fill="none" stroke-width="2"></path></g><g transform="translate(1186 79)"><path d="M0 -16L13.9 -8L13.9 8L0 16L-13.9 8L-13.9 -8Z" stroke="#6600FF" fill="none" stroke-width="2"></path></g><g transform="translate(947 3)"><path d="M0 -13L11.3 -6.5L11.3 6.5L0 13L-11.3 6.5L-11.3 -6.5Z" stroke="#6600FF" fill="none" stroke-width="2"></path></g><g transform="translate(1089 54)"><path d="M0 -10L8.7 -5L8.7 5L0 10L-8.7 5L-8.7 -5Z" stroke="#6600FF" fill="none" stroke-width="2"></path></g><g transform="translate(840 75)"><path d="M0 -12L10.4 -6L10.4 6L0 12L-10.4 6L-10.4 -6Z" stroke="#6600FF" fill="none" stroke-width="2"></path></g><g transform="translate(285 85)"><path d="M0 -14L12.1 -7L12.1 7L0 14L-12.1 7L-12.1 -7Z" stroke="#6600FF" fill="none" stroke-width="2"></path></g><g transform="translate(726 4)"><path d="M0 -10L8.7 -5L8.7 5L0 10L-8.7 5L-8.7 -5Z" stroke="#6600FF" fill="none" stroke-width="2"></path></g><g transform="translate(1176 2)"><path d="M0 -11L9.5 -5.5L9.5 5.5L0 11L-9.5 5.5L-9.5 -5.5Z" stroke="#6600FF" fill="none" stroke-width="2"></path></g><g transform="translate(413 74)"><path d="M0 -9L7.8 -4.5L7.8 4.5L0 9L-7.8 4.5L-7.8 -4.5Z" stroke="#6600FF" fill="none" stroke-width="2"></path></g><g transform="translate(70 80)"><path d="M0 -11L9.5 -5.5L9.5 5.5L0 11L-9.5 5.5L-9.5 -5.5Z" stroke="#6600FF" fill="none" stroke-width="2"></path></g><g transform="translate(779 1)"><path d="M0 -11L9.5 -5.5L9.5 5.5L0 11L-9.5 5.5L-9.5 -5.5Z" stroke="#6600FF" fill="none" stroke-width="2"></path></g><g transform="translate(189 1)"><path d="M0 -13L11.3 -6.5L11.3 6.5L0 13L-11.3 6.5L-11.3 -6.5Z" stroke="#6600FF" fill="none" stroke-width="2"></path></g><g transform="translate(157 96)"><path d="M0 -13L11.3 -6.5L11.3 6.5L0 13L-11.3 6.5L-11.3 -6.5Z" stroke="#6600FF" fill="none" stroke-width="2"></path></g><g transform="translate(321 3)"><path d="M0 -13L11.3 -6.5L11.3 6.5L0 13L-11.3 6.5L-11.3 -6.5Z" stroke="#6600FF" fill="none" stroke-width="2"></path></g><g transform="translate(1082 98)"><path d="M0 -10L8.7 -5L8.7 5L0 10L-8.7 5L-8.7 -5Z" stroke="#6600FF" fill="none" stroke-width="2"></path></g><g transform="translate(261 2)"><path d="M0 -14L12.1 -7L12.1 7L0 14L-12.1 7L-12.1 -7Z" stroke="#6600FF" fill="none" stroke-width="2"></path></g><g transform="translate(1407 96)"><path d="M0 -15L13 -7.5L13 7.5L0 15L-13 7.5L-13 -7.5Z" stroke="#6600FF" fill="none" stroke-width="2"></path></g></g></svg>