<svg id="visual" viewBox="0 0 1440 100" width="1440" height="100" xmlns="http://www.w3.org/2000/svg" xmlns:xlink="http://www.w3.org/1999/xlink" version="1.1"><g stroke-width="1" stroke-linejoin="bevel"><path d="M741 100L791 0L641 0Z" fill="#ffb372" stroke="#ffb372"></path><path d="M641 0L625 100L741 100Z" fill="#fdc493" stroke="#fdc493"></path><path d="M641 0L535 0L625 100Z" fill="#ffab61" stroke="#ffab61"></path><path d="M741 100L935 0L791 0Z" fill="#fec18e" stroke="#fec18e"></path><path d="M535 0L433 100L625 100Z" fill="#fdc493" stroke="#fdc493"></path><path d="M741 100L1016 100L935 0Z" fill="#ffb16c" stroke="#ffb16c"></path><path d="M1016 100L1171 0L935 0Z" fill="#fdc493" stroke="#fdc493"></path><path d="M281 0L307 100L433 100Z" fill="#ffb97d" stroke="#ffb97d"></path><path d="M535 0L281 0L433 100Z" fill="#ffb372" stroke="#ffb372"></path><path d="M1114 100L1171 0L1016 100Z" fill="#ffb97d" stroke="#ffb97d"></path><path d="M1114 100L1222 100L1171 0Z" fill="#ffb677" stroke="#ffb677"></path><path d="M1222 100L1281 0L1171 0Z" fill="#ffb16c" stroke="#ffb16c"></path><path d="M281 0L121 100L307 100Z" fill="#febf88" stroke="#febf88"></path><path d="M281 0L99 0L121 100Z" fill="#ffae67" stroke="#ffae67"></path><path d="M99 0L0 100L121 100Z" fill="#ffae67" stroke="#ffae67"></path><path d="M0 0L0 100L99 0Z" fill="#ffb16c" stroke="#ffb16c"></path><path d="M1440 100L1440 0L1281 0Z" fill="#fdc799" stroke="#fdc799"></path><path d="M1222 100L1440 100L1281 0Z" fill="#ffb16c" stroke="#ffb16c"></path></g></svg>